<!-- Generated by IcoMoon.io -->
<svg version="1.1" xmlns="http://www.w3.org/2000/svg" width="53" height="32" viewBox="0 0 53 32">
<title>logo-4</title>
<path fill="#2196f3" d="M10.291 8.050h-0.002c-1.419 0-2.57 1.122-2.57 2.505v0.002c0 1.383 1.151 2.505 2.57 2.505h0.002c1.419 0 2.57-1.122 2.57-2.505v-0.002c0-1.383-1.151-2.504-2.57-2.504zM29.262 7.25c-0.004-1.922-0.789-3.763-2.184-5.122-1.392-1.358-3.282-2.124-5.254-2.128-1.972 0.004-3.863 0.769-5.257 2.127s-2.18 3.201-2.184 5.123v10.595s14.877-1.614 14.879-10.593v-0.001zM2.51 21.322c0.007 1.399 0.587 2.66 1.518 3.563l0.001 0.001c0.945 0.916 2.234 1.481 3.656 1.482h0c1.421-0.001 2.711-0.566 3.657-1.483l-0.001 0.001c0.932-0.903 1.513-2.164 1.521-3.561v-7.374s-10.352 1.126-10.352 7.371zM7.686 22.643c-0.001 0-0.001 0-0.002 0-0.279 0-0.539-0.083-0.756-0.225l0.005 0.003c-0.22-0.144-0.392-0.346-0.496-0.584l-0.003-0.009c-0.065-0.149-0.103-0.323-0.103-0.505 0-0.091 0.009-0.18 0.027-0.266l-0.001 0.008c0.056-0.267 0.187-0.498 0.37-0.676l0-0c0.185-0.18 0.422-0.308 0.686-0.36l0.009-0.001c0.263-0.051 0.535-0.025 0.783 0.075s0.459 0.269 0.609 0.486c0.143 0.206 0.228 0.46 0.228 0.735 0 0.182-0.038 0.356-0.106 0.514l0.003-0.008c-0.068 0.161-0.168 0.307-0.293 0.43s-0.276 0.221-0.44 0.287c-0.154 0.064-0.332 0.101-0.52 0.101-0 0-0 0-0.001 0h0v-0.005zM18.253 21.823h-1.059v1.094h-0.552v-2.675h1.743v0.447h-1.191v0.691h1.058v0.445zM20.903 21.64c0 0.264-0.047 0.494-0.14 0.693s-0.227 0.351-0.401 0.459c-0.164 0.102-0.362 0.162-0.575 0.162-0.007 0-0.014-0-0.021-0l0.001 0c-0.010 0-0.022 0.001-0.033 0.001-0.425 0-0.792-0.249-0.962-0.61l-0.003-0.006c-0.092-0.194-0.146-0.422-0.146-0.662 0-0.008 0-0.016 0-0.023v0.001-0.133c0-0.264 0.047-0.496 0.142-0.695 0.095-0.201 0.23-0.355 0.402-0.461 0.174-0.108 0.373-0.162 0.596-0.162s0.42 0.054 0.594 0.162c0.174 0.107 0.307 0.26 0.402 0.461s0.144 0.431 0.144 0.693v0.119zM20.344 21.518c0-0.28-0.051-0.494-0.151-0.64-0.089-0.133-0.239-0.219-0.409-0.219-0.008 0-0.015 0-0.023 0l0.001-0c-0.006-0-0.013-0-0.020-0-0.169 0-0.318 0.086-0.407 0.216l-0.001 0.002c-0.1 0.143-0.152 0.354-0.153 0.632v0.131c0 0.274 0.050 0.486 0.151 0.636s0.245 0.226 0.434 0.226c0.006 0 0.014 0 0.022 0 0.168 0 0.316-0.085 0.404-0.215l0.001-0.002c0.099-0.146 0.149-0.358 0.151-0.636v-0.131zM22.691 22.215c0-0.005 0-0.010 0-0.016 0-0.091-0.043-0.171-0.11-0.222l-0.001-0c-0.074-0.056-0.206-0.115-0.397-0.177-0.176-0.055-0.327-0.117-0.47-0.191l0.016 0.008c-0.304-0.164-0.456-0.385-0.456-0.663 0-0.144 0.040-0.274 0.121-0.387s0.199-0.203 0.351-0.267c0.153-0.063 0.324-0.095 0.515-0.095s0.361 0.035 0.511 0.105c0.15 0.069 0.265 0.166 0.348 0.292 0.083 0.126 0.125 0.27 0.125 0.43h-0.552c0-0.123-0.038-0.218-0.115-0.285-0.077-0.069-0.186-0.104-0.326-0.104-0.135 0-0.24 0.029-0.314 0.087-0.069 0.049-0.113 0.128-0.113 0.218 0 0.002 0 0.004 0 0.007v-0c0 0.087 0.044 0.159 0.131 0.218 0.088 0.059 0.218 0.114 0.388 0.166 0.314 0.094 0.542 0.211 0.685 0.351s0.215 0.314 0.215 0.521c0 0.232-0.088 0.414-0.263 0.546s-0.411 0.197-0.708 0.197c-0.206 0-0.393-0.038-0.562-0.112-0.159-0.068-0.29-0.174-0.386-0.308l-0.002-0.003c-0.083-0.124-0.133-0.276-0.133-0.44 0-0.005 0-0.011 0-0.016v0.001h0.553c0 0.295 0.176 0.443 0.529 0.443 0.132 0 0.233-0.026 0.307-0.079 0.067-0.048 0.11-0.126 0.11-0.214 0-0.004-0-0.008-0-0.012l0 0.001zM25.634 20.688h-0.819v2.229h-0.552v-2.229h-0.809v-0.447h2.18v0.447zM27.561 21.758h-1.059v0.717h1.243v0.443h-1.794v-2.675h1.791v0.447h-1.239v0.637h1.059v0.432zM29.059 21.938h-0.439v0.979h-0.552v-2.675h0.995c0.316 0 0.56 0.070 0.732 0.211s0.257 0.34 0.257 0.597c0 0.182-0.040 0.335-0.119 0.458-0.089 0.128-0.211 0.228-0.354 0.288l-0.005 0.002 0.579 1.094v0.026h-0.592l-0.502-0.979zM28.62 21.491h0.445c0.138 0 0.245-0.035 0.321-0.105 0.071-0.069 0.115-0.166 0.115-0.272 0-0.007-0-0.014-0.001-0.021l0 0.001c0-0.126-0.036-0.226-0.109-0.297-0.071-0.073-0.181-0.109-0.329-0.109h-0.444v0.803zM31.962 21.974v0.943h-0.552v-2.675h1.045c0.201 0 0.377 0.036 0.53 0.11s0.27 0.178 0.353 0.314c0.082 0.135 0.123 0.289 0.123 0.462 0 0.262-0.090 0.469-0.27 0.621-0.179 0.151-0.427 0.226-0.745 0.226h-0.483zM31.962 21.528h0.493c0.146 0 0.257-0.035 0.333-0.104 0.077-0.068 0.116-0.166 0.116-0.294 0-0.006 0-0.012 0-0.019 0-0.115-0.044-0.221-0.117-0.299l0 0c-0.077-0.081-0.184-0.122-0.32-0.125h-0.505v0.841zM35.45 21.758h-1.059v0.717h1.242v0.443h-1.794v-2.675h1.791v0.447h-1.239v0.637h1.059v0.432zM38.009 20.688h-0.819v2.229h-0.552v-2.229h-0.808v-0.447h2.18v0.447zM39.935 21.758h-1.059v0.717h1.242v0.443h-1.794v-2.675h1.791v0.447h-1.239v0.637h1.059v0.432zM41.434 21.938h-0.439v0.979h-0.552v-2.675h0.995c0.316 0 0.56 0.070 0.732 0.211s0.257 0.34 0.257 0.597c0 0.182-0.040 0.335-0.119 0.458-0.089 0.128-0.21 0.228-0.353 0.288l-0.005 0.002 0.579 1.094v0.026h-0.592l-0.502-0.979zM40.995 21.491h0.446c0.138 0 0.245-0.035 0.321-0.105 0.070-0.069 0.114-0.165 0.114-0.272 0-0.007-0-0.014-0.001-0.022l0 0.001c0-0.126-0.036-0.226-0.108-0.297-0.072-0.073-0.181-0.109-0.329-0.109h-0.443v0.803zM44.235 22.215c0-0.005 0-0.010 0-0.016 0-0.091-0.043-0.171-0.11-0.222l-0.001-0c-0.074-0.056-0.206-0.115-0.397-0.177-0.176-0.055-0.327-0.117-0.47-0.191l0.016 0.008c-0.304-0.164-0.456-0.385-0.456-0.663 0-0.144 0.041-0.274 0.122-0.387s0.199-0.203 0.351-0.267c0.152-0.063 0.324-0.095 0.514-0.095s0.361 0.035 0.511 0.105c0.149 0.069 0.265 0.166 0.348 0.292 0.083 0.126 0.126 0.27 0.126 0.43h-0.552c0-0.123-0.038-0.218-0.115-0.285-0.077-0.069-0.186-0.104-0.326-0.104-0.135 0-0.24 0.029-0.314 0.087-0.069 0.049-0.113 0.128-0.113 0.218 0 0.002 0 0.004 0 0.007v-0c0 0.087 0.044 0.159 0.13 0.218 0.088 0.059 0.218 0.114 0.388 0.166 0.314 0.094 0.543 0.211 0.686 0.351s0.215 0.314 0.215 0.521c0 0.232-0.088 0.414-0.263 0.546s-0.411 0.197-0.708 0.197c-0.206 0-0.393-0.038-0.562-0.112-0.159-0.068-0.29-0.174-0.386-0.308l-0.002-0.003c-0.083-0.124-0.133-0.276-0.133-0.44 0-0.005 0-0.011 0-0.016v0.001h0.553c0 0.295 0.176 0.443 0.529 0.443 0.132 0 0.233-0.026 0.307-0.079 0.067-0.048 0.11-0.126 0.11-0.214 0-0.004-0-0.008-0-0.012l0 0.001z"></path>
</svg>
